<?xml version="1.0" encoding="utf-8"?>
<!-- Generator: Adobe Illustrator 23.0.0, SVG Export Plug-In . SVG Version: 6.00 Build 0)  -->
<svg version="1.1" id="图层_1" xmlns="http://www.w3.org/2000/svg" xmlns:xlink="http://www.w3.org/1999/xlink" x="0px" y="0px"
	 viewBox="0 0 11.7 14.1" style="enable-background:new 0 0 11.7 14.1;" xml:space="preserve">
<style type="text/css">
	.st0{fill:#F49C31;}
	.st1{fill:#797979;}
</style>
<path class="st0" d="M9.6,4C9.4,3.8,9,3.8,8.8,4.1l-3.5,4L3.8,6.2C3.6,5.9,3.2,5.9,3,6.1C2.7,6.3,2.6,6.7,2.8,7l1.9,2.5
	C4.8,9.6,5,9.7,5.2,9.7c0,0,0,0,0,0c0,0,0,0,0,0c0.2,0,0.4-0.1,0.5-0.2l4-4.6C9.9,4.7,9.9,4.3,9.6,4z"/>
<path class="st1" d="M5.8,14.1l-0.4-0.2l-0.2-0.1l-0.1,0c-0.9-0.5-2.9-1.5-3.7-2.4C0.8,10.8,0.3,10,0.1,9.1V8.9L0,1.9L5.9,0l5.9,1.9
	l0,7.2c-0.2,0.9-0.7,1.7-1.4,2.4c-0.9,0.9-3.4,2.1-4,2.5C6.3,13.9,5.8,14.1,5.8,14.1z M0.9,8.9c0.2,0.7,0.6,1.4,1.1,1.9
	c0.8,0.8,2.8,1.8,3.5,2.2l0.1,0l0.2,0.1l0.1,0c0.5-0.2,2.9-1.5,3.8-2.3c0.5-0.5,0.9-1.2,1.1-1.9l0-6.5l-5-1.6l-5,1.6
	C0.8,2.5,0.9,8.9,0.9,8.9z"/>
</svg>
