<?xml version="1.0" encoding="utf-8"?>
<!-- Generator: Adobe Illustrator 23.0.0, SVG Export Plug-In . SVG Version: 6.00 Build 0)  -->
<svg version="1.1" id="图层_1" xmlns="http://www.w3.org/2000/svg" xmlns:xlink="http://www.w3.org/1999/xlink" x="0px" y="0px"
	 viewBox="0 0 27 32" style="enable-background:new 0 0 27 32;" xml:space="preserve">
<style type="text/css">
	.st0{fill:#FFC716;}
	.st1{fill:#37464F;}
	.st2{fill:#FFFFFF;}
	.st3{fill:#FF3A2F;}
	.st4{fill:#DD2C00;}
</style>
<path class="st0" d="M13.3,29.2c0,1.6-2.3,2.8-5.1,2.8s-5.1-1.3-5.1-2.8s2.3-2.8,5.1-2.8S13.3,27.6,13.3,29.2L13.3,29.2z M18.8,26.4
	c-2.8,0-5.1,1.3-5.1,2.8S16,32,18.8,32s5.1-1.3,5.1-2.8S21.6,26.4,18.8,26.4L18.8,26.4z"/>
<path class="st1" d="M24.7,15.7c0,0-0.4-0.4-0.8-0.8v-4.5C23.9,4.7,19.3,0,13.5,0S3.1,4.7,3.1,10.4v4.5c-0.4,0.4-0.8,0.8-0.8,0.8
	c-0.7,1-2.3,3.7-2.3,6.2s0.7,2.9,0.9,2.9s1.1-0.2,2.2-1.8C4.5,27.6,8.6,31,13.5,31s9-3.4,10.4-8.1c1,1.6,1.9,1.9,2.2,1.8
	s0.9-0.4,0.9-2.9S25.4,16.7,24.7,15.7L24.7,15.7z"/>
<path class="st2" d="M5.8,17.5c-0.1,0.6-0.1,1.2-0.1,1.8c0,5.7,3.5,10.3,7.9,10.3s7.9-4.6,7.9-10.3c0-0.6,0-1.2-0.1-1.8L5.8,17.5z
	 M10.8,4.8c-1.1,0-2.1,1.3-2.1,2.9s0.9,2.9,2.1,2.9s2.1-1.3,2.1-2.9S11.9,4.8,10.8,4.8z M11.1,8.8c-0.4,0-0.8-0.5-0.8-1.2
	s0.3-1.2,0.8-1.2s0.8,0.5,0.8,1.2S11.5,8.8,11.1,8.8z M16.3,4.8c-1.1,0-2.1,1.3-2.1,2.9s0.9,2.9,2.1,2.9s2.1-1.3,2.1-2.9
	S17.5,4.8,16.3,4.8L16.3,4.8z M16.7,7.7C16.7,7.8,16.6,7.8,16.7,7.7C16.6,7.8,16.6,7.8,16.7,7.7c-0.1,0.1-0.1,0-0.1,0
	c-0.1-0.3-0.3-0.5-0.6-0.6c-0.3,0-0.6,0.3-0.6,0.6c0,0,0,0,0,0c0,0-0.1,0-0.1-0.1V7.6c0-0.6,0.3-1.2,0.8-1.2
	C16.4,6.5,16.7,7,16.7,7.7L16.7,7.7L16.7,7.7z"/>
<path class="st3" d="M5.3,16.9c-0.2,1-0.6,5.2-0.4,6.2c0.2,1,1,0.8,2.1,0.8s2.4,0.3,2.4-1.1s0-4.2,0.3-5.2S5.3,16.9,5.3,16.9z"/>
<path class="st4" d="M5,18.9l4.5,1.5c0-0.9,0.1-1.8,0.3-2.8c0.3-1-4.5-0.7-4.5-0.7C5.2,17.2,5.1,18,5,18.9z"/>
<path class="st0" d="M13.5,14.4c3.5,0,6.3-1.3,6.3-2.1c0-0.6-2.8-1.2-6.3-1.2s-6.3,0.6-6.3,1.2C7.2,13.1,10,14.4,13.5,14.4
	L13.5,14.4z"/>
<path class="st3" d="M13.6,15.2c0,0,4,0,7.2-1.3s3.2-1.5,3.5-1.5s0.8,0.5,0.9,1.4s0.4,1.6-0.4,2.1c-0.8,0.4-5.7,3.3-11.2,3.3h-0.3
	c-5.5,0-10.4-2.9-11.2-3.3s-0.5-1.1-0.4-2.1s0.6-1.4,0.9-1.4s0.3,0.2,3.5,1.5S13.6,15.2,13.6,15.2L13.6,15.2z"/>
</svg>
