<?xml version="1.0" encoding="utf-8"?>
<!-- Generator: Adobe Illustrator 23.0.0, SVG Export Plug-In . SVG Version: 6.00 Build 0)  -->
<svg version="1.1" id="图层_1" xmlns="http://www.w3.org/2000/svg" xmlns:xlink="http://www.w3.org/1999/xlink" x="0px" y="0px"
	 viewBox="0 0 33.4 47.9" style="enable-background:new 0 0 33.4 47.9;" xml:space="preserve">
<style type="text/css">
	.st0{fill:#797979;}
</style>
<path class="st0" d="M3.5,2.3c-0.7,0-1.3,0.6-1.3,1.3l0,0v40.8c0,0.7,0.6,1.3,1.3,1.3h26.4c0.7,0,1.3-0.6,1.3-1.3V3.6
	c0-0.7-0.6-1.3-1.3-1.3C29.9,2.3,3.5,2.3,3.5,2.3z M3.5,0.1h26.4c1.9,0,3.5,1.6,3.5,3.5v40.8c0,1.9-1.6,3.5-3.5,3.5H3.5
	c-1.9,0-3.5-1.6-3.5-3.5V3.6C0,1.7,1.6,0.1,3.5,0.1z M16.7,42.2c-1.3,0-2.4-1.1-2.4-2.4s1.1-2.4,2.4-2.4c1.3,0,2.4,1.1,2.4,2.4
	S18,42.2,16.7,42.2z"/>
</svg>
