<?xml version="1.0" encoding="utf-8"?>
<!-- Generator: Adobe Illustrator 23.0.0, SVG Export Plug-In . SVG Version: 6.00 Build 0)  -->
<svg version="1.1" id="图层_1" xmlns="http://www.w3.org/2000/svg" xmlns:xlink="http://www.w3.org/1999/xlink" x="0px" y="0px"
	 viewBox="0 0 39.1 48" style="enable-background:new 0 0 39.1 48;" xml:space="preserve">
<style type="text/css">
	.st0{fill:#797979;}
</style>
<path class="st0" d="M33.8,17.9v-5C33.8,5.8,27.4,0,19.6,0S5.3,5.8,5.3,12.9v5C2.3,18.4,0,21,0,24.2v17.4C0,45.1,2.9,48,6.4,48h26.3
	c3.5,0,6.4-2.9,6.4-6.4V24.2C39.1,21,36.8,18.4,33.8,17.9z M7.1,12.9c0-6.1,5.6-11.1,12.4-11.1S32,6.8,32,12.9v4.9H7.1V12.9z
	 M37.3,41.6c0,2.6-2.1,4.6-4.6,4.6H6.4c-2.6,0-4.6-2.1-4.6-4.6V24.2c0-2.6,2.1-4.6,4.6-4.6h26.3c2.6,0,4.6,2.1,4.6,4.6V41.6z"/>
<path class="st0" d="M19.6,24.9c-2,0-3.6,1.6-3.6,3.6v5.3c0,2,1.6,3.6,3.6,3.6s3.6-1.6,3.6-3.6v-5.3C23.1,26.5,21.5,24.9,19.6,24.9z
	 M21.3,33.8c0,1-0.8,1.8-1.8,1.8c-1,0-1.8-0.8-1.8-1.8v-5.3c0-1,0.8-1.8,1.8-1.8c1,0,1.8,0.8,1.8,1.8V33.8z"/>
</svg>
