<?xml version="1.0" encoding="utf-8"?>
<!-- Generator: Adobe Illustrator 23.0.0, SVG Export Plug-In . SVG Version: 6.00 Build 0)  -->
<svg version="1.1" id="图层_1" xmlns="http://www.w3.org/2000/svg" xmlns:xlink="http://www.w3.org/1999/xlink" x="0px" y="0px"
	 viewBox="0 0 48 33" style="enable-background:new 0 0 48 33;" xml:space="preserve">
<style type="text/css">
	.st0{fill:#797979;}
</style>
<path class="st0" d="M44,0H4C1.8,0,0,1.8,0,4.1v24.8C0,31.2,1.8,33,4,33h40c2.2,0,4-1.8,4-4.1V4.1C48,1.8,46.2,0,44,0L44,0z M43,2.9
	L27.1,17.3c-1.4,1.3-2.4,1.9-3.1,1.9s-1.7-0.6-3.1-1.9L5,2.9H43L43,2.9z M3,28V5.6l12.4,11.1L3,28L3,28z M5.1,30.1l12.5-11.3l2,1.8
	c1.2,1.1,2.7,1.6,4.4,1.6c1.7,0,3.2-0.5,4.4-1.6l2-1.8l12.5,11.3H5.1z M45,28L32.6,16.6L45,5.6C45,5.6,45,28,45,28z"/>
</svg>
