<?xml version="1.0" encoding="utf-8"?>
<!-- Generator: Adobe Illustrator 23.0.2, SVG Export Plug-In . SVG Version: 6.00 Build 0)  -->
<svg version="1.1" id="图层_1" xmlns="http://www.w3.org/2000/svg" xmlns:xlink="http://www.w3.org/1999/xlink" x="0px" y="0px"
	 viewBox="0 0 12.8 11.2" style="enable-background:new 0 0 12.8 11.2;" xml:space="preserve">
<style type="text/css">
	.st0{fill:#5A5A5A;}
</style>
<path class="st0" d="M0.4,2h1.7c1.2,0,2.4,0.5,3.1,1.4c0.1,0.1,0.2,0.1,0.3,0.1c0.1,0,0.2,0,0.3-0.1c0.2-0.1,0.2-0.4,0-0.6
	C4.9,1.8,3.6,1.2,2.1,1.2H0.4C0.2,1.2,0,1.4,0,1.6S0.2,2,0.4,2z"/>
<path class="st0" d="M10.4,2h1l-0.5,0.5c-0.2,0.2-0.2,0.4,0,0.6c0.1,0.1,0.2,0.1,0.3,0.1c0.1,0,0.2,0,0.3-0.1l1.2-1.2
	c0.1-0.1,0.1-0.2,0.1-0.3s0-0.2-0.1-0.3l-1.2-1.2c-0.2-0.2-0.4-0.2-0.6,0c-0.2,0.2-0.2,0.4,0,0.6l0.5,0.5h-1C8,1.2,6,3.2,6,5.6
	c0,2-1.7,3.6-3.9,3.6H0.4C0.2,9.2,0,9.4,0,9.6S0.2,10,0.4,10h1.7c2.6,0,4.7-2,4.7-4.4C6.8,3.6,8.4,2,10.4,2z"/>
<path class="st0" d="M11.5,8.1c-0.2-0.2-0.4-0.2-0.6,0c-0.1,0.2-0.2,0.4,0,0.6l0.5,0.5h-1c-1.2,0-2.2-0.5-2.9-1.5
	C7.4,7.6,7.1,7.5,6.9,7.7S6.7,8.1,6.9,8.2C7.7,9.3,9,10,10.4,10h1l-0.5,0.5c-0.2,0.2-0.2,0.4,0,0.6c0.1,0.1,0.2,0.1,0.3,0.1
	c0.1,0,0.2,0,0.3-0.1l1.2-1.2c0.1-0.1,0.1-0.2,0.1-0.3s0-0.2-0.1-0.3C12.7,9.3,11.5,8.1,11.5,8.1z"/>
</svg>
