<?xml version="1.0" standalone="no"?><!DOCTYPE svg PUBLIC "-//W3C//DTD SVG 1.1//EN"
  "http://www.w3.org/Graphics/SVG/1.1/DTD/svg11.dtd">
<svg t="1560823235809" class="icon" style="" viewBox="0 0 1024 1024" version="1.1" xmlns="http://www.w3.org/2000/svg"
     p-id="7817" xmlns:xlink="http://www.w3.org/1999/xlink" width="16" height="16">
  <defs>
    <style type="text/css"></style>
  </defs>
  <path
    d="M128 64a64 64 0 0 0-64 64v768a64 64 0 0 0 64 64h768a64 64 0 0 0 64-64V128a64 64 0 0 0-64-64H128z m0-64h768a128 128 0 0 1 128 128v768a128 128 0 0 1-128 128H128a128 128 0 0 1-128-128V128a128 128 0 0 1 128-128z"
    fill="#8a8a8a" p-id="7818"></path>
  <path d="M768 224a32 32 0 1 1 0 64H384a32 32 0 0 1 0-64h384z" fill="#8a8a8a" p-id="7819"></path>
  <path d="M224 224l64 0 0 64-64 0 0-64Z" fill="#8a8a8a" p-id="7820"></path>
  <path d="M768 480a32 32 0 1 1 0 64H384a32 32 0 0 1 0-64h384z" fill="#8a8a8a" p-id="7821"></path>
  <path d="M224 480l64 0 0 64-64 0 0-64Z" fill="#8a8a8a" p-id="7822"></path>
  <path d="M768 736a32 32 0 1 1 0 64H384a32 32 0 1 1 0-64h384z" fill="#8a8a8a" p-id="7823"></path>
  <path d="M224 736l64 0 0 64-64 0 0-64Z" fill="#8a8a8a" p-id="7824"></path>
</svg>
