<?xml version="1.0" encoding="utf-8"?>
<!-- Generator: Adobe Illustrator 23.0.0, SVG Export Plug-In . SVG Version: 6.00 Build 0)  -->
<svg version="1.1" id="图层_1" xmlns="http://www.w3.org/2000/svg" xmlns:xlink="http://www.w3.org/1999/xlink" x="0px" y="0px"
	 viewBox="0 0 25.7 25.1" style="enable-background:new 0 0 25.7 25.1;" xml:space="preserve">
<style type="text/css">
	.st0{fill:#2C2C2C;}
</style>
<path class="st0" d="M25.7,12.9c0,2.8-0.8,5.3-2.5,7.6c-1.6,2.2-3.7,3.8-6.3,4.6c-0.3,0.1-0.5,0-0.7-0.1c-0.1-0.1-0.2-0.3-0.2-0.5
	v-3.5c0-1.1-0.3-1.9-0.9-2.4c0.6-0.1,1.2-0.2,1.7-0.3c0.5-0.1,1-0.4,1.6-0.7c0.5-0.3,1-0.7,1.4-1.1c0.4-0.4,0.7-1,0.9-1.8
	s0.3-1.6,0.3-2.5c0-1.4-0.4-2.5-1.3-3.4c0.4-1,0.4-2.2-0.1-3.4c-0.3-0.1-0.8,0-1.4,0.2S17.1,6,16.7,6.2l-0.6,0.4
	c-1-0.3-2.1-0.4-3.2-0.4s-2.2,0.1-3.2,0.4C9.5,6.5,9.2,6.4,8.9,6.2C8.6,6,8.2,5.8,7.5,5.6C6.9,5.3,6.4,5.2,6.1,5.3
	C5.6,6.6,5.6,7.7,6,8.7c-0.9,0.9-1.3,2.1-1.3,3.4c0,0.9,0.1,1.8,0.3,2.5c0.2,0.7,0.5,1.3,0.9,1.8c0.4,0.4,0.8,0.8,1.3,1.1
	c0.5,0.3,1.1,0.5,1.6,0.7c0.5,0.1,1.1,0.2,1.7,0.3c-0.4,0.4-0.7,1-0.8,1.7c-0.2,0.1-0.5,0.2-0.8,0.3s-0.6,0.1-1,0.1
	s-0.7-0.1-1.1-0.4c-0.4-0.2-0.7-0.6-0.9-1c-0.2-0.4-0.5-0.6-0.8-0.9c-0.3-0.2-0.6-0.4-0.8-0.4L4,17.9c-0.2,0-0.4,0-0.5,0.1
	s-0.1,0.1-0.1,0.2s0.1,0.2,0.2,0.2c0.1,0.1,0.1,0.1,0.2,0.2l0.1,0.1c0.2,0.1,0.5,0.3,0.7,0.6c0.2,0.3,0.4,0.6,0.5,0.9l0.2,0.4
	c0.1,0.4,0.4,0.8,0.7,1s0.7,0.4,1.1,0.5c0.4,0.1,0.8,0.1,1.2,0.1c0.4,0,0.7,0,0.9-0.1L9.7,22c0,0.4,0,0.9,0,1.5c0,0.6,0,0.9,0,0.9
	c0,0.2-0.1,0.4-0.2,0.5c-0.1,0.1-0.4,0.2-0.7,0.1c-2.6-0.9-4.7-2.4-6.3-4.6S0,15.7,0,12.9c0-2.3,0.6-4.5,1.7-6.5s2.7-3.5,4.7-4.7
	S10.5,0,12.9,0s4.5,0.6,6.5,1.7s3.5,2.7,4.7,4.7C25.1,8.4,25.7,10.5,25.7,12.9L25.7,12.9z"/>
</svg>
