<?xml version="1.0" encoding="utf-8"?>
<!-- Generator: Adobe Illustrator 23.0.2, SVG Export Plug-In . SVG Version: 6.00 Build 0)  -->
<svg version="1.1" id="图层_1" xmlns="http://www.w3.org/2000/svg" xmlns:xlink="http://www.w3.org/1999/xlink" x="0px" y="0px"
	 viewBox="0 0 42.6 46.7" style="enable-background:new 0 0 42.6 46.7;" xml:space="preserve">
<style type="text/css">
	.st0{fill:#797979;}
</style>
<path class="st0" d="M5.8,21.4c-1.1,0-1.9,0.9-1.9,1.9v17.5c0,1.1,0.9,1.9,1.9,1.9H37c1.1,0,1.9-0.9,1.9-1.9V23.4
	c0-1.1-0.9-1.9-1.9-1.9H5.8L5.8,21.4z M37,46.7H5.8c-3.2,0-5.8-2.6-5.8-5.8V23.4c0-3.2,2.6-5.8,5.8-5.8H37c3.2,0,5.8,2.6,5.8,5.8
	v17.5C42.8,44.1,40.2,46.7,37,46.7z"/>
<path class="st0" d="M33.1,21.4h-3.9v-9.7c0-4.3-3.5-7.8-7.8-7.8c-4.3,0-7.8,3.5-7.8,7.8v9.7H9.7v-9.7C9.7,5.2,15,0,21.4,0
	c6.4,0,11.7,5.2,11.7,11.7V21.4z M21.4,37c-1.1,0-1.9-0.9-1.9-1.9v-5.8c0-1.1,0.9-1.9,2-1.9c1.1,0,1.9,0.9,1.9,1.9V35
	C23.4,36.1,22.5,37,21.4,37z"/>
</svg>
