<?xml version="1.0" encoding="utf-8"?>
<!-- Generator: Adobe Illustrator 23.0.0, SVG Export Plug-In . SVG Version: 6.00 Build 0)  -->
<svg version="1.1" id="图层_1" xmlns="http://www.w3.org/2000/svg" xmlns:xlink="http://www.w3.org/1999/xlink" x="0px" y="0px"
	 viewBox="0 0 16 16" style="enable-background:new 0 0 16 16;" xml:space="preserve">
<style type="text/css">
	.st0{fill:#2C2C2C;}
</style>
<path class="st0" d="M10.9,13.6c-0.1,0-0.2,0-0.3-0.1l-1.7-1.8c-0.2-0.2-0.2-0.4,0-0.6c0.2-0.2,0.4-0.2,0.6,0l1.4,1.5l2.8-2.9
	c0.2-0.2,0.4-0.2,0.6,0c0.2,0.2,0.2,0.4,0,0.6l-3.1,3.2C11.1,13.6,11,13.6,10.9,13.6z"/>
<path class="st0" d="M12,7.2V0.4C12,0.2,11.8,0,11.6,0H0.4C0.2,0,0,0.2,0,0.4v15.2C0,15.8,0.2,16,0.4,16h11.2c2.4,0,4.4-2,4.4-4.4
	C16,9.3,14.3,7.4,12,7.2z M0.8,15.2V0.8h10.4v6.4c-0.7,0.1-1.4,0.3-2,0.7c0.1-0.2,0.1-0.4,0.1-0.6c0-0.5-0.1-0.9-0.4-1.1
	s-0.6-0.4-1-0.4c-0.5,0-0.8,0.1-1.1,0.4S6.4,6.9,6.4,7.4c0,0.5,0.1,0.8,0.4,1.1c0.3,0.3,0.6,0.4,1,0.4c0.1,0,0.2,0,0.3,0
	c-0.4,0.6-0.8,1.2-0.9,2H3.1c-0.2,0-0.4,0.2-0.4,0.4s0.2,0.4,0.4,0.4h4.1c0,0.3,0,0.5,0.1,0.8H3.1c-0.2,0-0.4,0.2-0.4,0.4
	s0.2,0.4,0.4,0.4h4.4c0.3,0.8,0.9,1.4,1.5,1.9L0.8,15.2L0.8,15.2z M8.3,8C8.2,8.2,8.1,8.2,7.9,8.2S7.5,8.2,7.4,8
	C7.3,7.9,7.2,7.7,7.2,7.4c0-0.3,0.1-0.5,0.2-0.7s0.3-0.2,0.5-0.2c0.2,0,0.3,0.1,0.5,0.2s0.2,0.4,0.2,0.6C8.5,7.6,8.5,7.9,8.3,8z
	 M11.6,15.2c-2,0-3.6-1.6-3.6-3.6S9.6,8,11.6,8s3.6,1.6,3.6,3.6S13.6,15.2,11.6,15.2z"/>
<path class="st0" d="M4.1,5.8c0.5,0,0.8-0.1,1.1-0.4c0.3-0.3,0.4-0.7,0.4-1.2c0-0.5-0.1-0.9-0.4-1.1C5,2.8,4.6,2.7,4.2,2.7
	c-0.5,0-0.8,0.1-1.1,0.4C2.8,3.4,2.7,3.8,2.7,4.3c0,0.5,0.1,0.8,0.4,1.1S3.7,5.8,4.1,5.8z M3.7,3.6C3.8,3.5,4,3.4,4.2,3.4
	c0.2,0,0.3,0.1,0.4,0.2C4.7,3.8,4.8,4,4.8,4.3S4.7,4.8,4.6,4.9C4.5,5.1,4.3,5.2,4.1,5.2C3.9,5.2,3.8,5.1,3.7,5
	C3.6,4.8,3.5,4.6,3.5,4.3C3.5,4,3.6,3.8,3.7,3.6z M4.5,8.8l3.9-6h-1l-3.9,6H4.5z"/>
</svg>
