<?xml version="1.0" encoding="utf-8"?>
<!-- Generator: Adobe Illustrator 23.0.2, SVG Export Plug-In . SVG Version: 6.00 Build 0)  -->
<svg version="1.1" id="图层_1" xmlns="http://www.w3.org/2000/svg" xmlns:xlink="http://www.w3.org/1999/xlink" x="0px" y="0px"
	 viewBox="0 0 128.13 128" style="enable-background:new 0 0 128.13 128;" xml:space="preserve">
<style type="text/css">
	.st0{fill:#11C195;}
</style>
<path class="st0" d="M64.06,0C28.67,0,0,28.67,0,64s28.67,64,64.06,64s64.06-28.67,64.06-64S99.45,0,64.06,0z M52.54,92.74
	c0,1.34-1.09,2.43-2.43,2.43h-11.9c-1.34,0-2.43-1.09-2.43-2.43V54.46h16.77C52.54,54.46,52.54,92.74,52.54,92.74z M52.54,52.42
	H35.78v-5.25c0-1.34,1.09-2.43,2.43-2.43h11.9c1.34,0,2.43,1.09,2.43,2.43C52.54,47.17,52.54,52.42,52.54,52.42z M54.78,34.5
	c0-1.34,1.09-2.43,2.43-2.43h11.9c1.34,0,2.43,1.09,2.43,2.43v50.82H54.78C54.78,85.31,54.78,34.5,54.78,34.5z M71.55,92.74
	c0,1.34-1.09,2.43-2.43,2.43h-11.9c-1.34,0-2.43-1.09-2.43-2.43v-5.25h16.77V92.74z M71.81,49.41c-0.26-1.28,0.58-2.62,1.86-2.88
	l11.65-2.5c1.28-0.26,2.62,0.58,2.88,1.86l1.09,5.18l-16.38,3.52C72.89,54.59,71.81,49.41,71.81,49.41z M96,93.31l-11.65,2.5
	c-1.28,0.26-2.62-0.58-2.88-1.86l-8.13-37.38l16.38-3.52l8.13,37.38C98.17,91.78,97.34,93.06,96,93.31z"/>
</svg>
