<?xml version="1.0" encoding="utf-8"?>
<!-- Generator: Adobe Illustrator 23.0.0, SVG Export Plug-In . SVG Version: 6.00 Build 0)  -->
<svg version="1.1" id="图层_1" xmlns="http://www.w3.org/2000/svg" xmlns:xlink="http://www.w3.org/1999/xlink" x="0px" y="0px"
	 viewBox="0 0 48 48" style="enable-background:new 0 0 48 48;" xml:space="preserve">
<style type="text/css">
	.st0{fill:#FAB427;}
</style>
<path class="st0" d="M24,0C17.5,0,11.5,2.4,7,7c-4.3,4.6-7,10.6-7,16.8C0,37.2,10.6,48,23.8,48C37.2,48,48,37.4,48,24.2
	C48,10.8,37.4,0,24,0z M24,44.9c-11.8,0-21.1-9.4-20.9-21.1C3.1,12.2,12.5,2.9,24,3.1c11.5,0,20.9,9.4,20.9,20.9
	C44.9,35.8,35.8,44.9,24,44.9z M21.6,19.9v7.7c0,1.7,1,2.2,2.6,2.2c1.7,0,1.7-1,1.7-2.2c0.2-4.6,0.2-9.1,0.5-13.7
	c0.2-1.7,0-2.9-2.4-2.9s-2.6,1-2.6,2.9L21.6,19.9z M27.1,35.8c-0.2,1.9-1.4,2.9-3.1,2.9s-2.9-1-3.1-2.6c-0.2-1.9,1-2.9,2.9-2.9
	C25.7,32.9,26.6,34.1,27.1,35.8z"/>
</svg>
