<?xml version="1.0" encoding="utf-8"?>
<!-- Generator: Adobe Illustrator 23.0.0, SVG Export Plug-In . SVG Version: 6.00 Build 0)  -->
<svg version="1.1" id="图层_1" xmlns="http://www.w3.org/2000/svg" xmlns:xlink="http://www.w3.org/1999/xlink" x="0px" y="0px"
	 viewBox="0 0 64 64" style="enable-background:new 0 0 64 64;" xml:space="preserve">
<style type="text/css">
	.st0{fill:#797979;}
</style>
<path class="st0" d="M32,0C14.3,0,0,14.3,0,32c0,17.7,14.3,32,32,32c17.7,0,32-14.3,32-32C64,14.3,49.7,0,32,0L32,0z M32,59.5
	C16.8,59.5,4.5,47.2,4.5,32C4.5,16.8,16.8,4.5,32,4.5S59.5,16.8,59.5,32C59.5,47.2,47.2,59.5,32,59.5L32,59.5z"/>
<path class="st0" d="M32.4,24.9c-5,0-9,4-9,9s4,9,9,9c5,0,9-4,9-9C41.4,29,37.3,24.9,32.4,24.9L32.4,24.9z M32.4,39.7
	c-3.2,0-5.8-2.6-5.8-5.8s2.6-5.8,5.8-5.8c3.2,0,5.8,2.6,5.8,5.8S35.5,39.7,32.4,39.7L32.4,39.7z"/>
<path class="st0" d="M43.9,24.9c-0.7,0-1.3,0.6-1.3,1.3c0,0.7,0.6,1.3,1.3,1.3c0.7,0,1.3-0.6,1.3-1.3C45.2,25.5,44.6,24.9,43.9,24.9
	L43.9,24.9z"/>
<path class="st0" d="M47.8,21.1h-7l-2.2-3.3c-0.2-0.4-0.6-0.6-1.1-0.6H27.2c-0.4,0-0.8,0.2-1.1,0.6l-2.2,3.3h-7
	c-1.4,0-2.6,1.2-2.6,2.6v20.6c0,1.4,1.2,2.6,2.6,2.6h30.9c1.4,0,2.6-1.2,2.6-2.6l0-20.6C50.4,22.2,49.2,21.1,47.8,21.1L47.8,21.1z
	 M16.9,44.2V23.6h7.7c0.4,0,0.8-0.2,1.1-0.6l2.2-3.3h8.9l2.2,3.3c0.2,0.4,0.6,0.6,1.1,0.6h7.7l0,20.6H16.9L16.9,44.2z"/>
</svg>
