<?xml version="1.0" encoding="utf-8"?>
<!-- Generator: Adobe Illustrator 23.0.2, SVG Export Plug-In . SVG Version: 6.00 Build 0)  -->
<svg version="1.1" id="图层_1" xmlns="http://www.w3.org/2000/svg" xmlns:xlink="http://www.w3.org/1999/xlink" x="0px" y="0px"
	 viewBox="0 0 45 36.2" style="enable-background:new 0 0 45 36.2;" xml:space="preserve">
<style type="text/css">
	.st0{fill:#797979;}
</style>
<path class="st0" d="M2.3,4.5h40.4c1.3,0,2.3-1,2.3-2.3S44,0,42.7,0H2.3C1,0,0,1,0,2.3S1,4.5,2.3,4.5z M42.7,15.7H2.3
	C1,15.7,0,16.8,0,18c0,1.2,1,2.3,2.3,2.3h40.4c1.3,0,2.3-1,2.3-2.3S44,15.7,42.7,15.7z M42.7,31.7H2.3c-1.3,0-2.3,1-2.3,2.3
	c0,1.2,1,2.3,2.3,2.3h40.4c1.3,0,2.3-1,2.3-2.3C45,32.7,44,31.7,42.7,31.7z"/>
</svg>
