<?xml version="1.0" encoding="utf-8"?>
<!-- Generator: Adobe Illustrator 23.0.2, SVG Export Plug-In . SVG Version: 6.00 Build 0)  -->
<svg version="1.1" id="图层_1" xmlns="http://www.w3.org/2000/svg" xmlns:xlink="http://www.w3.org/1999/xlink" x="0px" y="0px"
	 viewBox="0 0 36 36" style="enable-background:new 0 0 36 36;" xml:space="preserve">
<style type="text/css">
	.st0{fill:#797979;}
</style>
<path class="st0" d="M18,0C8.1,0,0,8.1,0,18s8.1,18,18,18s18-8.1,18-18S27.9,0,18,0z M18,33C9.7,33,3,26.3,3,18S9.7,3,18,3
	s15,6.7,15,15S26.3,33,18,33z"/>
<path class="st0" d="M25,22.4l-6.2-3.6V9c0-0.8-0.7-1.5-1.5-1.5S15.8,8.2,15.8,9v10.5c0,0.6,0.7,1,1.1,1.3c0.1,0.2,0.5,0.4,0.7,0.5
	l6.2,3.8c0.7,0.4,1.5,0.2,1.9-0.5C26.1,23.7,25.7,22.8,25,22.4z"/>
</svg>
