<?xml version="1.0" encoding="utf-8"?>
<!-- Generator: Adobe Illustrator 23.0.0, SVG Export Plug-In . SVG Version: 6.00 Build 0)  -->
<svg version="1.1" id="图层_1" xmlns="http://www.w3.org/2000/svg" xmlns:xlink="http://www.w3.org/1999/xlink" x="0px" y="0px"
	 viewBox="0 0 16 16" style="enable-background:new 0 0 16 16;" xml:space="preserve">
<style type="text/css">
	.st0{fill:#2C2C2C;}
</style>
<path class="st0" d="M6.4,1h3.2v1.3H6.4V1z M7.1,4.7h5V6h-5V4.7z M7.1,7.6h5v1.3h-5V7.6z M7.1,10.5h5v1.3h-5V10.5z M4,0h1.3v3.2H4V0
	z M10.8,0H12v3.2h-1.3V0z"/>
<path class="st0" d="M13.2,1v1.3h1.6v12.5H1.3V2.2h1.6V1H0v15h16V1H13.2z"/>
<path class="st0" d="M4,4.7h1.2V6H4L4,4.7z M4,7.6h1.2v1.3H4L4,7.6z M4,10.5h1.2v1.3H4L4,10.5z"/>
</svg>
