<?xml version="1.0" encoding="utf-8"?>
<!-- Generator: Adobe Illustrator 23.0.0, SVG Export Plug-In . SVG Version: 6.00 Build 0)  -->
<svg version="1.1" id="图层_1" xmlns="http://www.w3.org/2000/svg" xmlns:xlink="http://www.w3.org/1999/xlink" x="0px" y="0px"
	 viewBox="0 0 28.6 27.3" style="enable-background:new 0 0 28.6 27.3;" xml:space="preserve">
<style type="text/css">
	.st0{fill:#42494F;}
</style>
<path class="st0" d="M0,1.7C0,0.8,0.8,0,1.7,0c0.5,0,0.9,0.2,1.2,0.5l11.3,11.3L25.4,0.5c0.7-0.7,1.8-0.7,2.4,0
	c0.7,0.7,0.7,1.7,0,2.4L16.3,14.5c-1.2,1.2-3.1,1.2-4.2,0L0.5,2.9C0.2,2.6,0,2.2,0,1.7z"/>
<path class="st0" d="M0.2,13.6c0-0.9,0.8-1.7,1.7-1.7c0.5,0,0.9,0.2,1.2,0.5l11.3,11.2l11.2-11.3c0.7-0.7,1.8-0.7,2.4,0
	c0.7,0.7,0.7,1.7,0,2.4L16.5,26.4c-1.2,1.2-3.1,1.2-4.2,0c0,0,0,0,0,0L0.7,14.8C0.4,14.5,0.2,14.1,0.2,13.6z"/>
</svg>
