<?xml version="1.0" encoding="utf-8"?>
<!-- Generator: Adobe Illustrator 23.0.0, SVG Export Plug-In . SVG Version: 6.00 Build 0)  -->
<svg version="1.1" id="图层_1" xmlns="http://www.w3.org/2000/svg" xmlns:xlink="http://www.w3.org/1999/xlink" x="0px" y="0px"
	 viewBox="0 0 39.8 41.9" style="enable-background:new 0 0 39.8 41.9;" xml:space="preserve">
<style type="text/css">
	.st0{fill:#797979;}
</style>
<path class="st0" d="M19.9,25.5c6.5,0,11.7-6,11.7-13.4c0-7-4.9-12.2-11.7-12.2S8.2,5.1,8.2,12.2C8.2,19.5,13.4,25.5,19.9,25.5z
	 M11.2,12.2c0-5.4,3.6-9.2,8.7-9.2c5.1,0,8.7,3.8,8.7,9.2c0,5.7-3.9,10.3-8.7,10.3C15.1,22.5,11.2,17.9,11.2,12.2z M39.8,39.3
	c0-0.5-0.1-4.1-3.4-7.5c-3.4-3.5-9-5.3-16.5-5.3c-8,0-13.8,2-17.1,5.9C0.1,35.7,0,39,0,39.3v0c-0.1,0.6,0.1,1.2,0.5,1.7
	c0.4,0.5,1.1,0.8,1.8,0.8h35.3c0.7,0,1.3-0.3,1.7-0.8C39.7,40.7,39.9,40,39.8,39.3z M36.8,38.9H3.1c0-0.2,0.1-0.5,0.2-0.9
	c0.3-1.2,0.8-2.2,1.6-3.2c2.7-3.4,7.7-5.2,15.1-5.2s12.4,1.7,15.1,5.2c0.8,1,1.3,2.1,1.6,3.2C36.7,38.3,36.7,38.6,36.8,38.9z"/>
</svg>
