<?xml version="1.0" encoding="utf-8"?>
<!-- Generator: Adobe Illustrator 23.0.0, SVG Export Plug-In . SVG Version: 6.00 Build 0)  -->
<svg version="1.1" id="图层_1" xmlns="http://www.w3.org/2000/svg" xmlns:xlink="http://www.w3.org/1999/xlink" x="0px" y="0px"
	 viewBox="0 0 14 7.9" style="enable-background:new 0 0 14 7.9;" xml:space="preserve">
<style type="text/css">
	.st0{fill:#333333;}
</style>
<path class="st0" d="M7,0C2.4,0,0,3.4,0,3.9s2.4,3.9,7,3.9s7-3.4,7-3.9S11.6,0,7,0z M7,6.9c-1.7,0-3-1.3-3-3c0-1.7,1.3-3,3-3
	c1.6,0,3,1.3,3,3C10,5.6,8.7,7,7,6.9z M7,3.4c-0.3-0.3,0.5-1,0-1c-0.9,0-1.5,0.6-1.5,1.5S6.1,5.4,7,5.4s1.5-0.6,1.5-1.5
	C8.5,3.5,7.2,3.7,7,3.4z"/>
</svg>
