<?xml version="1.0" encoding="utf-8"?>
<!-- Generator: Adobe Illustrator 23.0.0, SVG Export Plug-In . SVG Version: 6.00 Build 0)  -->
<svg version="1.1" id="图层_1" xmlns="http://www.w3.org/2000/svg" xmlns:xlink="http://www.w3.org/1999/xlink" x="0px" y="0px"
	 viewBox="0 0 27.6 20.2" style="enable-background:new 0 0 27.6 20.2;" xml:space="preserve">
<style type="text/css">
	.st0{fill:#1B8CD0;}
</style>
<path class="st0" d="M26.8,4.2L11.7,19.2c-0.1,0.1-0.2,0.1-0.3,0.2c0,0,0,0,0,0.1c-0.9,0.9-2.4,0.9-3.4,0l-7.4-7.3
	c-0.8-0.8-0.8-2.2,0-3c0,0,0,0,0,0c1-1,2.7-1,3.8,0l0,0l5.3,5.3L23.5,0.7c0.8-0.8,2.4-1.1,3.5,0C28,1.7,27.8,3.1,26.8,4.2z"/>
</svg>
