<?xml version="1.0" encoding="utf-8"?>
<!-- Generator: Adobe Illustrator 23.0.2, SVG Export Plug-In . SVG Version: 6.00 Build 0)  -->
<svg version="1.1" id="图层_1" xmlns="http://www.w3.org/2000/svg" xmlns:xlink="http://www.w3.org/1999/xlink" x="0px" y="0px"
	 viewBox="0 0 38.6 25.1" style="enable-background:new 0 0 38.6 25.1;" xml:space="preserve">
<style type="text/css">
	.st0{fill:#797979;}
</style>
<path class="st0" d="M12.3,13.4H7.1v5.1H5.3v-5.1H0.2v-1.8h5.1V6.5h1.8v5.1h5.1L12.3,13.4L12.3,13.4z"/>
<path class="st0" d="M15.8,11.9c-2.4-1.4-3.6-3.3-3.6-5.8c0-1.8,0.6-3.2,1.7-4.3c1.1-1.1,2.6-1.7,4.3-1.7c1.6,0,2.9,0.6,4,1.6
	c1,1,1.5,2.4,1.5,4.1c0,2.7-1.2,4.8-3.8,6.1l0,0.1c2.9,1.3,4.4,3.4,4.4,6.5c0,2-0.6,3.6-1.8,4.8c-1.2,1.1-2.8,1.8-5,1.8
	c-1.8,0-3.2-0.6-4.4-1.7c-1.1-1.1-1.7-2.7-1.7-4.6C11.5,15.7,13,13.4,15.8,11.9L15.8,11.9z M17.8,13.4c-2.5,1.3-3.7,3-3.7,5.1
	c0,1.1,0.4,2.2,1,2.8c0.7,0.7,1.7,1.1,2.8,1.1c1.1,0,2.1-0.3,2.7-1.1c0.7-0.8,1-1.7,1-2.7C21.8,16.3,20.4,14.5,17.8,13.4z M21.2,6.1
	c0-1-0.3-1.9-0.9-2.5S19,2.7,18.1,2.7c-0.9,0-1.7,0.3-2.3,1c-0.7,0.7-0.9,1.5-0.9,2.5c0,2,1,3.5,3.1,4.6C20,9.6,21.2,8.2,21.2,6.1z"
	/>
<path class="st0" d="M37.4,3.4c-1-0.7-2.2-0.9-3.3-0.9c-1.7,0-3.1,0.9-4.2,2.7c-1,1.8-1.6,4.4-1.6,7.4h0.1c0.9-2.2,2.5-3.3,4.5-3.3
	c1.7,0,3.1,0.7,4.2,2.1c1,1.4,1.5,3.2,1.5,5.5c0,2.4-0.6,4.4-1.8,5.8s-2.7,2.3-4.5,2.3c-2.1,0-3.6-0.9-4.8-2.9
	c-1.2-1.9-1.7-4.7-1.7-8.2c0-4.2,0.8-7.7,2.3-10.2S31.5,0,34.1,0c1.4,0,2.6,0.2,3.3,0.7L37.4,3.4z M28.5,16.7c0,1.6,0.4,3,1,4.1
	s1.6,1.7,2.8,1.7c1.1,0,2-0.5,2.6-1.5c0.7-1,1-2.3,1-3.8c0-1.7-0.3-3-0.9-3.9c-0.7-0.9-1.6-1.4-2.7-1.4c-1.1,0-2.1,0.5-2.7,1.4
	C29,14.3,28.5,15.3,28.5,16.7z"/>
</svg>
