<?xml version="1.0" standalone="no"?><!DOCTYPE svg PUBLIC "-//W3C//DTD SVG 1.1//EN" "http://www.w3.org/Graphics/SVG/1.1/DTD/svg11.dtd"><svg t="1561554060199" class="icon" viewBox="0 0 1024 1024" version="1.1" xmlns="http://www.w3.org/2000/svg" p-id="2132" xmlns:xlink="http://www.w3.org/1999/xlink" width="64" height="64"><defs><style type="text/css"></style></defs><path d="M512 0C229.229714 0 0 229.229714 0 512s229.229714 512 512 512 512-229.229714 512-512S794.770286 0 512 0z m308.370286 368.822857L466.102857 730.806857a35.181714 35.181714 0 0 1-54.436571 5.138286l-175.963429-178.669714a36.498286 36.498286 0 0 1 0-51.053715 35.163429 35.163429 0 0 1 50.285714 0l150.308572 152.612572 333.805714-341.028572a35.181714 35.181714 0 0 1 50.285714 0 36.516571 36.516571 0 0 1 0 51.053715z" fill="#21B100" p-id="2133"></path></svg>