<?xml version="1.0" standalone="no"?><!DOCTYPE svg PUBLIC "-//W3C//DTD SVG 1.1//EN"
  "http://www.w3.org/Graphics/SVG/1.1/DTD/svg11.dtd">
<svg t="1562496013104" class="icon" viewBox="0 0 1024 1024" version="1.1" xmlns="http://www.w3.org/2000/svg" p-id="2353"
     width="16" height="16" xmlns:xlink="http://www.w3.org/1999/xlink">
  <defs>
    <style type="text/css"></style>
  </defs>
  <path
    d="M513.35168 65.420288c-246.829056 0-446.915584 200.107008-446.915584 446.905344 0 246.848512 200.086528 446.920704 446.915584 446.920704 246.818816 0 446.910464-200.072192 446.910464-446.920704C960.262144 265.526272 760.170496 65.420288 513.35168 65.420288zM513.292288 899.72224c-213.955584 0-387.411968-173.446144-387.411968-387.406848 0-213.955584 173.45536-387.426304 387.411968-387.426304 213.976064 0 387.421184 173.47072 387.421184 387.426304C900.713472 726.276096 727.268352 899.72224 513.292288 899.72224zM605.638656 629.952512c-10.829824 0-53.36064 62.790656-76.546048 62.790656-6.192128 0-9.261056-5.169152-9.261056-10.333184 0-11.812864 8.496128-30.30016 13.129728-41.378816l55.660544-144.024576c27.84256-71.6544-7.7312-90.842112-40.976384-90.842112-44.829696 0-85.037056 21.41184-115.958784 49.477632-10.05568 9.613312-35.017728 46.891008-35.017728 61.018112 0 4.707328 4.712448 10.21952 10.22976 10.21952 14.132224 0 41.786368-71.972864 70.393856-71.972864 6.197248 0 13.159424 6.659072 7.7312 19.93216l-54.095872 130.006016c-5.4272 12.563456-31.711232 55.645184-31.711232 91.09504 0 28.060672 19.325952 58.103808 47.164416 58.103808 78.08512 0 168.51968-91.58656 168.51968-113.01376C614.899712 634.386432 609.502208 629.952512 605.638656 629.952512zM590.155776 270.24896c-34.010112 0-63.386624 26.586112-63.386624 59.081728 0 30.290944 20.875264 50.24256 52.586496 50.24256 34.779136 0 64.156672-25.116672 64.156672-59.081728C643.51232 290.19136 621.09696 270.24896 590.155776 270.24896z"
    p-id="2354" fill="#707070"></path>
</svg>
