<?xml version="1.0" encoding="utf-8"?>
<!-- Generator: Adobe Illustrator 23.0.0, SVG Export Plug-In . SVG Version: 6.00 Build 0)  -->
<svg version="1.1" id="图层_1" xmlns="http://www.w3.org/2000/svg" xmlns:xlink="http://www.w3.org/1999/xlink" x="0px" y="0px"
	 viewBox="0 0 32 32" style="enable-background:new 0 0 32 32;" xml:space="preserve">
<style type="text/css">
	.st0{fill:#19D100;}
</style>
<path class="st0" d="M22.2,16c-0.4,0-0.7,0.4-0.7,0.8c0,0.4,0.4,0.7,0.7,0.7c0.5,0,0.9-0.4,0.9-0.7C23.1,16.4,22.8,16,22.2,16z
	 M10.6,10.7c-0.5,0-1.2,0.4-1.2,0.9s0.5,0.9,1.2,0.9c0.3,0,0.4-0.1,0.6-0.3c0.2-0.2,0.3-0.4,0.3-0.6c0-0.3-0.1-0.4-0.3-0.6
	C11,10.8,10.8,10.7,10.6,10.7z M23.8,22.6l0.5,1.9l-2-1.2c-0.8,0.2-1.5,0.4-2.2,0.4c-3.5,0-6.2-2.4-6.2-5.3s2.8-5.3,6.2-5.3
	c3.3,0,6.3,2.4,6.3,5.3C26.4,20.1,25.3,21.5,23.8,22.6z M13,20.1c-0.9,0-1.8-0.2-2.6-0.4L7.7,21l0.8-2.2c-1.9-1.3-2.9-2.9-2.9-5
	c0-3.6,3.4-6.2,7.4-6.2c3.6,0,6.8,2.1,7.4,5.2c-0.3-0.1-0.4-0.1-0.7-0.1c-3.6,0-6.3,2.7-6.3,5.9c0,0.5,0.1,1.1,0.2,1.6
	C13.5,20.1,13,20.1,13,20.1z M16,0C7.2,0,0,7.2,0,16s7.2,16,16,16s16-7.2,16-16S24.8,0,16,0z M15.7,12.4c0.3,0,0.5-0.1,0.7-0.3
	c0.2-0.2,0.3-0.4,0.3-0.6c0-0.3-0.1-0.5-0.3-0.7c-0.3-0.1-0.4-0.2-0.7-0.2c-0.5,0-1.1,0.4-1.1,0.9S15.2,12.4,15.7,12.4z M18.1,16
	c-0.4,0-0.7,0.4-0.7,0.8c0,0.4,0.4,0.6,0.7,0.7c0.5,0,0.9-0.4,0.9-0.7C19,16.4,18.7,16,18.1,16z"/>
</svg>
