<?xml version="1.0" encoding="utf-8"?>
<!-- Generator: Adobe Illustrator 23.0.0, SVG Export Plug-In . SVG Version: 6.00 Build 0)  -->
<svg version="1.1" id="图层_1" xmlns="http://www.w3.org/2000/svg" xmlns:xlink="http://www.w3.org/1999/xlink" x="0px" y="0px"
	 viewBox="0 0 111.9 111.9" style="enable-background:new 0 0 111.9 111.9;" xml:space="preserve">
<style type="text/css">
	.st0{fill:#D81E06;}
</style>
<path class="st0" d="M56,0C25.1,0,0,25.1,0,56s25.1,56,56,56s56-25.1,56-56S86.9,0,56,0z M52,23c0-3.3,1.5-4.9,4.5-4.9
	c3,0,4.5,1.6,4.5,4.9v45.3c0,3.3-1.5,4.9-4.5,4.9c-3,0-4.5-1.6-4.5-4.9L52,23z M56.5,93.2c-3.3,0-5-1.6-5.3-4.9c0.3-3.3,2-5,5.3-5.3
	c3.3,0.3,5,2,5.3,5.3C61.6,91.6,59.8,93.2,56.5,93.2z"/>
</svg>
